# xmcd
#
# Track frame offsets:
#	150
#	21192
#	42012
#	64130
#	89672
#	107712
#	129227
#	143500
#	167777
#	206887
#	230477
#	249880
#	272155
#	290587
#	312337
#
# Disc length: 4420 seconds
#
# Revision: 1
# Processed by: cddbd v1.5.1PL0 Copyright (c) Steve Scherf et al.
# Submitted via: CDex 1.50Beta5
#
DISCID=d711420f
DTITLE=Various Artist - TRENDY DRAMA Hit Story
DYEAR=1900
DGENRE=Other
TTITLE0=米米CLUB/君がいるだけで
TTITLE1=小野正利/You’re the Only
TTITLE2=鈴木雅之/もう涙はいらない
TTITLE3=楠瀬誠志郎/星が見えた夜
TTITLE4=裕木奈江/泣いてないってば
TTITLE5=松田聖子/きっと、また逢える
TTITLE6=ジャム・クリーム/19番のタンゴ
TTITLE7=TMN/WILD HEAVEN
TTITLE8=X/Say Anything
TTITLE9=宮沢りえ/心から好き
TTITLE10=楠瀬誠志郎/ほっとけないよ
TTITLE11=ロッテンハッツ/STAY
TTITLE12=高嶋政宏/泣きやまないで
TTITLE13=大江千里/ありがとう
TTITLE14=佐野元春/約束の橋
EXTD=
EXTT0=
EXTT1=
EXTT2=
EXTT3=
EXTT4=
EXTT5=
EXTT6=
EXTT7=
EXTT8=
EXTT9=
EXTT10=
EXTT11=
EXTT12=
EXTT13=
EXTT14=
PLAYORDER=
